<mxfile host="65bd71144e">
    <diagram id="ex5XyP4213OjqiVHanWm" name="第 1 页">
        <mxGraphModel dx="968" dy="558" grid="1" gridSize="10" guides="1" tooltips="1" connect="1" arrows="1" fold="1" page="1" pageScale="1" pageWidth="827" pageHeight="1169" math="0" shadow="0">
            <root>
                <mxCell id="0"/>
                <mxCell id="1" parent="0"/>
                <mxCell id="4" style="edgeStyle=orthogonalEdgeStyle;html=1;exitX=1;exitY=0.5;exitDx=0;exitDy=0;entryX=0;entryY=0.5;entryDx=0;entryDy=0;sketch=1;curved=1;" edge="1" parent="1" source="2" target="3">
                    <mxGeometry relative="1" as="geometry"/>
                </mxCell>
                <mxCell id="11" style="edgeStyle=orthogonalEdgeStyle;sketch=1;html=1;exitX=1;exitY=0.5;exitDx=0;exitDy=0;entryX=0;entryY=0.5;entryDx=0;entryDy=0;curved=1;" edge="1" parent="1" source="2" target="8">
                    <mxGeometry relative="1" as="geometry"/>
                </mxCell>
                <mxCell id="14" style="edgeStyle=orthogonalEdgeStyle;sketch=1;html=1;exitX=1;exitY=0.5;exitDx=0;exitDy=0;entryX=0;entryY=0.5;entryDx=0;entryDy=0;curved=1;" edge="1" parent="1" source="2" target="12">
                    <mxGeometry relative="1" as="geometry"/>
                </mxCell>
                <mxCell id="18" style="edgeStyle=orthogonalEdgeStyle;sketch=1;html=1;exitX=1;exitY=0.5;exitDx=0;exitDy=0;entryX=0;entryY=0.5;entryDx=0;entryDy=0;curved=1;" edge="1" parent="1" source="2" target="16">
                    <mxGeometry relative="1" as="geometry"/>
                </mxCell>
                <mxCell id="68" style="sketch=1;html=1;exitX=1;exitY=0.5;exitDx=0;exitDy=0;entryX=0;entryY=0.5;entryDx=0;entryDy=0;startArrow=none;startFill=0;edgeStyle=orthogonalEdgeStyle;curved=1;" edge="1" parent="1" source="2" target="67">
                    <mxGeometry relative="1" as="geometry"/>
                </mxCell>
                <mxCell id="74" style="edgeStyle=orthogonalEdgeStyle;sketch=1;html=1;exitX=1;exitY=0.5;exitDx=0;exitDy=0;entryX=0;entryY=0.5;entryDx=0;entryDy=0;startArrow=none;startFill=0;curved=1;" edge="1" parent="1" source="2" target="71">
                    <mxGeometry relative="1" as="geometry"/>
                </mxCell>
                <mxCell id="80" style="edgeStyle=orthogonalEdgeStyle;sketch=1;html=1;exitX=1;exitY=0.5;exitDx=0;exitDy=0;entryX=0;entryY=0.5;entryDx=0;entryDy=0;startArrow=none;startFill=0;curved=1;" edge="1" parent="1" source="2" target="76">
                    <mxGeometry relative="1" as="geometry"/>
                </mxCell>
                <mxCell id="89" style="edgeStyle=orthogonalEdgeStyle;sketch=1;html=1;exitX=1;exitY=0.5;exitDx=0;exitDy=0;entryX=0;entryY=0.5;entryDx=0;entryDy=0;startArrow=none;startFill=0;curved=1;" edge="1" parent="1" source="2" target="84">
                    <mxGeometry relative="1" as="geometry"/>
                </mxCell>
                <mxCell id="90" style="edgeStyle=orthogonalEdgeStyle;sketch=1;html=1;exitX=1;exitY=0.5;exitDx=0;exitDy=0;entryX=0;entryY=0.5;entryDx=0;entryDy=0;startArrow=none;startFill=0;curved=1;" edge="1" parent="1" source="2" target="81">
                    <mxGeometry relative="1" as="geometry"/>
                </mxCell>
                <mxCell id="97" style="edgeStyle=orthogonalEdgeStyle;sketch=1;html=1;exitX=1;exitY=0.5;exitDx=0;exitDy=0;entryX=0;entryY=0.5;entryDx=0;entryDy=0;startArrow=none;startFill=0;curved=1;" edge="1" parent="1" source="2" target="94">
                    <mxGeometry relative="1" as="geometry"/>
                </mxCell>
                <mxCell id="98" style="edgeStyle=orthogonalEdgeStyle;curved=1;sketch=1;html=1;exitX=1;exitY=0.5;exitDx=0;exitDy=0;entryX=0;entryY=0.5;entryDx=0;entryDy=0;startArrow=none;startFill=0;" edge="1" parent="1" source="2" target="91">
                    <mxGeometry relative="1" as="geometry"/>
                </mxCell>
                <mxCell id="2" value="执行计划项" style="rounded=0;whiteSpace=wrap;html=1;fillColor=#ffe6cc;strokeColor=#d79b00;comic=1;" vertex="1" parent="1">
                    <mxGeometry x="40" y="170" width="80" height="30" as="geometry"/>
                </mxCell>
                <mxCell id="6" style="edgeStyle=none;html=1;exitX=1;exitY=0.5;exitDx=0;exitDy=0;entryX=0;entryY=0.5;entryDx=0;entryDy=0;sketch=1;" edge="1" parent="1" source="3" target="5">
                    <mxGeometry relative="1" as="geometry"/>
                </mxCell>
                <mxCell id="3" value="id" style="rounded=0;whiteSpace=wrap;html=1;fillColor=#dae8fc;strokeColor=#6c8ebf;comic=1;" vertex="1" parent="1">
                    <mxGeometry x="170" y="50" width="70" height="30" as="geometry"/>
                </mxCell>
                <mxCell id="5" value="标识执行的先后顺序" style="rounded=0;whiteSpace=wrap;html=1;fillColor=#e1d5e7;strokeColor=#9673a6;comic=1;" vertex="1" parent="1">
                    <mxGeometry x="270" y="50" width="140" height="30" as="geometry"/>
                </mxCell>
                <mxCell id="7" value="id相同时从上往下先后执行&lt;br&gt;例如使用子查询时执行顺序是先内后外" style="rounded=0;whiteSpace=wrap;html=1;fillColor=#ffe6cc;strokeColor=#d79b00;comic=1;sketch=1;" vertex="1" parent="1">
                    <mxGeometry x="430" y="45" width="220" height="40" as="geometry"/>
                </mxCell>
                <mxCell id="10" style="edgeStyle=none;sketch=1;html=1;exitX=1;exitY=0.5;exitDx=0;exitDy=0;entryX=0;entryY=0.5;entryDx=0;entryDy=0;" edge="1" parent="1" source="8" target="9">
                    <mxGeometry relative="1" as="geometry"/>
                </mxCell>
                <mxCell id="8" value="select_type" style="rounded=0;whiteSpace=wrap;html=1;fillColor=#dae8fc;strokeColor=#6c8ebf;comic=1;" vertex="1" parent="1">
                    <mxGeometry x="170" y="110" width="70" height="30" as="geometry"/>
                </mxCell>
                <mxCell id="9" value="查询类型" style="rounded=0;whiteSpace=wrap;html=1;fillColor=#e1d5e7;strokeColor=#9673a6;comic=1;" vertex="1" parent="1">
                    <mxGeometry x="270" y="110" width="136" height="30" as="geometry"/>
                </mxCell>
                <mxCell id="15" style="edgeStyle=none;sketch=1;html=1;exitX=1;exitY=0.5;exitDx=0;exitDy=0;entryX=0;entryY=0.5;entryDx=0;entryDy=0;" edge="1" parent="1" source="12" target="13">
                    <mxGeometry relative="1" as="geometry"/>
                </mxCell>
                <mxCell id="12" value="table" style="rounded=0;whiteSpace=wrap;html=1;fillColor=#dae8fc;strokeColor=#6c8ebf;comic=1;" vertex="1" parent="1">
                    <mxGeometry x="170" y="170" width="70" height="30" as="geometry"/>
                </mxCell>
                <mxCell id="13" value="当前查询的表" style="rounded=0;whiteSpace=wrap;html=1;fillColor=#e1d5e7;strokeColor=#9673a6;comic=1;" vertex="1" parent="1">
                    <mxGeometry x="270" y="170" width="136" height="30" as="geometry"/>
                </mxCell>
                <mxCell id="19" style="edgeStyle=none;sketch=1;html=1;exitX=1;exitY=0.5;exitDx=0;exitDy=0;entryX=0;entryY=0.5;entryDx=0;entryDy=0;" edge="1" parent="1" source="16" target="17">
                    <mxGeometry relative="1" as="geometry"/>
                </mxCell>
                <mxCell id="16" value="type" style="rounded=0;whiteSpace=wrap;html=1;fillColor=#b0e3e6;strokeColor=#0e8088;comic=1;" vertex="1" parent="1">
                    <mxGeometry x="170" y="340" width="70" height="30" as="geometry"/>
                </mxCell>
                <mxCell id="27" style="edgeStyle=none;sketch=1;html=1;exitX=1;exitY=0.5;exitDx=0;exitDy=0;entryX=0;entryY=0.5;entryDx=0;entryDy=0;" edge="1" parent="1" source="17" target="20">
                    <mxGeometry relative="1" as="geometry"/>
                </mxCell>
                <mxCell id="28" style="edgeStyle=none;sketch=1;html=1;exitX=1;exitY=0.5;exitDx=0;exitDy=0;entryX=0;entryY=0.5;entryDx=0;entryDy=0;" edge="1" parent="1" source="17" target="21">
                    <mxGeometry relative="1" as="geometry"/>
                </mxCell>
                <mxCell id="29" style="edgeStyle=none;sketch=1;html=1;exitX=1;exitY=0.5;exitDx=0;exitDy=0;entryX=0;entryY=0.5;entryDx=0;entryDy=0;" edge="1" parent="1" source="17" target="22">
                    <mxGeometry relative="1" as="geometry"/>
                </mxCell>
                <mxCell id="30" style="edgeStyle=none;sketch=1;html=1;exitX=1;exitY=0.5;exitDx=0;exitDy=0;entryX=0;entryY=0.5;entryDx=0;entryDy=0;" edge="1" parent="1" source="17" target="23">
                    <mxGeometry relative="1" as="geometry"/>
                </mxCell>
                <mxCell id="31" style="edgeStyle=none;sketch=1;html=1;exitX=1;exitY=0.5;exitDx=0;exitDy=0;entryX=0;entryY=0.5;entryDx=0;entryDy=0;" edge="1" parent="1" source="17" target="24">
                    <mxGeometry relative="1" as="geometry"/>
                </mxCell>
                <mxCell id="32" style="edgeStyle=none;sketch=1;html=1;exitX=1;exitY=0.5;exitDx=0;exitDy=0;entryX=0;entryY=0.5;entryDx=0;entryDy=0;" edge="1" parent="1" source="17" target="25">
                    <mxGeometry relative="1" as="geometry"/>
                </mxCell>
                <mxCell id="33" style="edgeStyle=none;sketch=1;html=1;exitX=1;exitY=0.5;exitDx=0;exitDy=0;entryX=0;entryY=0.5;entryDx=0;entryDy=0;" edge="1" parent="1" source="17" target="26">
                    <mxGeometry relative="1" as="geometry"/>
                </mxCell>
                <mxCell id="17" value="访问类型" style="rounded=0;whiteSpace=wrap;html=1;fillColor=#e1d5e7;strokeColor=#9673a6;comic=1;" vertex="1" parent="1">
                    <mxGeometry x="270" y="340" width="70" height="30" as="geometry"/>
                </mxCell>
                <mxCell id="35" style="edgeStyle=none;sketch=1;html=1;exitX=1;exitY=0.5;exitDx=0;exitDy=0;entryX=0;entryY=0.5;entryDx=0;entryDy=0;" edge="1" parent="1" source="20" target="34">
                    <mxGeometry relative="1" as="geometry"/>
                </mxCell>
                <mxCell id="20" value="ALL" style="rounded=0;whiteSpace=wrap;html=1;fillColor=#dae8fc;strokeColor=#6c8ebf;comic=1;" vertex="1" parent="1">
                    <mxGeometry x="390" y="210" width="70" height="30" as="geometry"/>
                </mxCell>
                <mxCell id="37" style="edgeStyle=none;sketch=1;html=1;exitX=1;exitY=0.5;exitDx=0;exitDy=0;entryX=0;entryY=0.5;entryDx=0;entryDy=0;" edge="1" parent="1" source="21" target="36">
                    <mxGeometry relative="1" as="geometry"/>
                </mxCell>
                <mxCell id="21" value="index" style="rounded=0;whiteSpace=wrap;html=1;fillColor=#dae8fc;strokeColor=#6c8ebf;comic=1;" vertex="1" parent="1">
                    <mxGeometry x="390" y="250" width="70" height="30" as="geometry"/>
                </mxCell>
                <mxCell id="43" style="edgeStyle=none;sketch=1;html=1;exitX=1;exitY=0.5;exitDx=0;exitDy=0;entryX=0;entryY=0.5;entryDx=0;entryDy=0;" edge="1" parent="1" source="22" target="42">
                    <mxGeometry relative="1" as="geometry"/>
                </mxCell>
                <mxCell id="22" value="range" style="rounded=0;whiteSpace=wrap;html=1;fillColor=#dae8fc;strokeColor=#6c8ebf;comic=1;" vertex="1" parent="1">
                    <mxGeometry x="390" y="290" width="70" height="30" as="geometry"/>
                </mxCell>
                <mxCell id="49" style="edgeStyle=none;sketch=1;html=1;exitX=1;exitY=0.5;exitDx=0;exitDy=0;entryX=0;entryY=0.5;entryDx=0;entryDy=0;" edge="1" parent="1" source="23" target="46">
                    <mxGeometry relative="1" as="geometry"/>
                </mxCell>
                <mxCell id="23" value="ref" style="rounded=0;whiteSpace=wrap;html=1;fillColor=#dae8fc;strokeColor=#6c8ebf;comic=1;" vertex="1" parent="1">
                    <mxGeometry x="390" y="340" width="70" height="30" as="geometry"/>
                </mxCell>
                <mxCell id="53" style="edgeStyle=none;sketch=1;html=1;exitX=1;exitY=0.5;exitDx=0;exitDy=0;entryX=0;entryY=0.5;entryDx=0;entryDy=0;" edge="1" parent="1" source="24" target="52">
                    <mxGeometry relative="1" as="geometry"/>
                </mxCell>
                <mxCell id="24" value="eq_ref" style="rounded=0;whiteSpace=wrap;html=1;fillColor=#dae8fc;strokeColor=#6c8ebf;comic=1;" vertex="1" parent="1">
                    <mxGeometry x="390" y="390" width="70" height="30" as="geometry"/>
                </mxCell>
                <mxCell id="56" style="edgeStyle=orthogonalEdgeStyle;sketch=1;html=1;exitX=1;exitY=0.5;exitDx=0;exitDy=0;entryX=0;entryY=0.5;entryDx=0;entryDy=0;startArrow=none;startFill=0;" edge="1" parent="1" source="25" target="55">
                    <mxGeometry relative="1" as="geometry"/>
                </mxCell>
                <mxCell id="25" value="const" style="rounded=0;whiteSpace=wrap;html=1;fillColor=#dae8fc;strokeColor=#6c8ebf;comic=1;" vertex="1" parent="1">
                    <mxGeometry x="390" y="430" width="70" height="30" as="geometry"/>
                </mxCell>
                <mxCell id="64" style="edgeStyle=none;sketch=1;html=1;exitX=1;exitY=0.5;exitDx=0;exitDy=0;entryX=0;entryY=0.5;entryDx=0;entryDy=0;startArrow=none;startFill=0;" edge="1" parent="1" source="26" target="63">
                    <mxGeometry relative="1" as="geometry"/>
                </mxCell>
                <mxCell id="26" value="null" style="rounded=0;whiteSpace=wrap;html=1;fillColor=#dae8fc;strokeColor=#6c8ebf;comic=1;" vertex="1" parent="1">
                    <mxGeometry x="390" y="470" width="70" height="30" as="geometry"/>
                </mxCell>
                <mxCell id="41" style="edgeStyle=none;sketch=1;html=1;exitX=1;exitY=0.5;exitDx=0;exitDy=0;entryX=0;entryY=0.5;entryDx=0;entryDy=0;" edge="1" parent="1" source="34" target="40">
                    <mxGeometry relative="1" as="geometry"/>
                </mxCell>
                <mxCell id="34" value="全表扫描，从头到尾，去找到需要的行" style="rounded=0;whiteSpace=wrap;html=1;fillColor=#ffe6cc;strokeColor=#d79b00;comic=1;sketch=1;" vertex="1" parent="1">
                    <mxGeometry x="500" y="210" width="220" height="30" as="geometry"/>
                </mxCell>
                <mxCell id="39" style="edgeStyle=none;sketch=1;html=1;exitX=1;exitY=0.5;exitDx=0;exitDy=0;entryX=0;entryY=0.5;entryDx=0;entryDy=0;" edge="1" parent="1" source="36" target="38">
                    <mxGeometry relative="1" as="geometry"/>
                </mxCell>
                <mxCell id="36" value="一般是全索引扫描，索引覆盖时的类型" style="rounded=0;whiteSpace=wrap;html=1;fillColor=#ffe6cc;strokeColor=#d79b00;comic=1;sketch=1;" vertex="1" parent="1">
                    <mxGeometry x="500" y="250" width="220" height="30" as="geometry"/>
                </mxCell>
                <mxCell id="38" value="select attr_id from pms_attr;" style="rounded=0;whiteSpace=wrap;html=1;fillColor=#ffe6cc;strokeColor=#d79b00;comic=1;sketch=0;" vertex="1" parent="1">
                    <mxGeometry x="740" y="250" width="180" height="30" as="geometry"/>
                </mxCell>
                <mxCell id="40" value="select * from pms_attr;" style="rounded=0;whiteSpace=wrap;html=1;fillColor=#ffe6cc;strokeColor=#d79b00;comic=1;sketch=0;" vertex="1" parent="1">
                    <mxGeometry x="740" y="210" width="180" height="30" as="geometry"/>
                </mxCell>
                <mxCell id="45" style="edgeStyle=none;sketch=1;html=1;exitX=1;exitY=0.5;exitDx=0;exitDy=0;entryX=0;entryY=0.5;entryDx=0;entryDy=0;" edge="1" parent="1" source="42" target="44">
                    <mxGeometry relative="1" as="geometry"/>
                </mxCell>
                <mxCell id="42" value="一般是在一定范围内进行索引扫描" style="rounded=0;whiteSpace=wrap;html=1;fillColor=#ffe6cc;strokeColor=#d79b00;comic=1;sketch=1;" vertex="1" parent="1">
                    <mxGeometry x="500" y="290" width="220" height="30" as="geometry"/>
                </mxCell>
                <mxCell id="44" value="select attr_id from pms_attr where attr_id between 5 and 10;" style="rounded=0;whiteSpace=wrap;html=1;fillColor=#ffe6cc;strokeColor=#d79b00;comic=1;sketch=0;" vertex="1" parent="1">
                    <mxGeometry x="740" y="290" width="180" height="30" as="geometry"/>
                </mxCell>
                <mxCell id="48" style="edgeStyle=none;sketch=1;html=1;entryX=0;entryY=0.5;entryDx=0;entryDy=0;exitX=1;exitY=0.5;exitDx=0;exitDy=0;" edge="1" parent="1" source="52" target="47">
                    <mxGeometry relative="1" as="geometry">
                        <mxPoint x="800" y="410" as="sourcePoint"/>
                    </mxGeometry>
                </mxCell>
                <mxCell id="46" value="&lt;b&gt;查询条件包含的字段&lt;/b&gt;为&lt;b&gt;一表的普通索引&lt;/b&gt;" style="rounded=0;whiteSpace=wrap;html=1;fillColor=#ffe6cc;strokeColor=#d79b00;comic=1;sketch=1;" vertex="1" parent="1">
                    <mxGeometry x="500" y="340" width="270" height="30" as="geometry"/>
                </mxCell>
                <mxCell id="51" style="edgeStyle=none;sketch=1;html=1;exitX=1;exitY=0.5;exitDx=0;exitDy=0;entryX=0;entryY=0.5;entryDx=0;entryDy=0;" edge="1" parent="1" source="47" target="50">
                    <mxGeometry relative="1" as="geometry"/>
                </mxCell>
                <mxCell id="47" value="&lt;div&gt;select * from emp2019152038 e&lt;/div&gt;&lt;div&gt;left join dept2019152038 d&lt;/div&gt;&lt;div&gt;on e.DEPTNO = d.DEPTNO&lt;/div&gt;" style="rounded=0;whiteSpace=wrap;html=1;fillColor=#ffe6cc;strokeColor=#d79b00;comic=1;sketch=0;" vertex="1" parent="1">
                    <mxGeometry x="800" y="380" width="180" height="50" as="geometry"/>
                </mxCell>
                <mxCell id="66" style="sketch=1;html=1;exitX=1;exitY=0.5;exitDx=0;exitDy=0;entryX=0.5;entryY=0;entryDx=0;entryDy=0;startArrow=none;startFill=0;edgeStyle=orthogonalEdgeStyle;rounded=0;" edge="1" parent="1" source="50" target="65">
                    <mxGeometry relative="1" as="geometry"/>
                </mxCell>
                <mxCell id="50" value="" style="shape=image;imageAspect=0;aspect=fixed;verticalLabelPosition=bottom;verticalAlign=top;comic=1;sketch=1;image=https://codereaper-image-bed.oss-cn-shenzhen.aliyuncs.com/img/image-20220818234330285.png;imageBorder=default;" vertex="1" parent="1">
                    <mxGeometry x="1000" y="280" width="205.23" height="159" as="geometry"/>
                </mxCell>
                <mxCell id="54" value="对比" style="edgeStyle=orthogonalEdgeStyle;sketch=1;html=1;exitX=1;exitY=0.5;exitDx=0;exitDy=0;entryX=1;entryY=0.75;entryDx=0;entryDy=0;startArrow=classic;startFill=1;" edge="1" parent="1" source="52" target="46">
                    <mxGeometry relative="1" as="geometry">
                        <Array as="points">
                            <mxPoint x="780" y="405"/>
                            <mxPoint x="780" y="363"/>
                            <mxPoint x="770" y="363"/>
                        </Array>
                    </mxGeometry>
                </mxCell>
                <mxCell id="52" value="&lt;b&gt;查询条件包含的字段&lt;/b&gt;为&lt;b&gt;一表的主键索引&lt;/b&gt;" style="rounded=0;whiteSpace=wrap;html=1;fillColor=#ffe6cc;strokeColor=#d79b00;comic=1;sketch=1;" vertex="1" parent="1">
                    <mxGeometry x="500" y="390" width="270" height="30" as="geometry"/>
                </mxCell>
                <mxCell id="60" style="sketch=1;html=1;exitX=1;exitY=0.5;exitDx=0;exitDy=0;entryX=0;entryY=0.5;entryDx=0;entryDy=0;startArrow=none;startFill=0;" edge="1" parent="1" source="55" target="59">
                    <mxGeometry relative="1" as="geometry"/>
                </mxCell>
                <mxCell id="55" value="命中主键索引或唯一索引" style="rounded=0;whiteSpace=wrap;html=1;fillColor=#ffe6cc;strokeColor=#d79b00;comic=1;sketch=1;" vertex="1" parent="1">
                    <mxGeometry x="500" y="430" width="220" height="30" as="geometry"/>
                </mxCell>
                <mxCell id="62" style="edgeStyle=none;sketch=1;html=1;exitX=1;exitY=0.5;exitDx=0;exitDy=0;entryX=0;entryY=0.5;entryDx=0;entryDy=0;startArrow=none;startFill=0;" edge="1" parent="1" source="59" target="61">
                    <mxGeometry relative="1" as="geometry"/>
                </mxCell>
                <mxCell id="59" value="select * from emp2019152038 e&lt;br&gt;where EMPNO = 3258;" style="rounded=0;whiteSpace=wrap;html=1;fillColor=#ffe6cc;strokeColor=#d79b00;comic=1;sketch=0;align=left;" vertex="1" parent="1">
                    <mxGeometry x="750" y="450" width="180" height="32" as="geometry"/>
                </mxCell>
                <mxCell id="61" value="" style="shape=image;imageAspect=0;aspect=fixed;verticalLabelPosition=bottom;verticalAlign=top;comic=1;sketch=1;image=https://codereaper-image-bed.oss-cn-shenzhen.aliyuncs.com/img/image-20220818234734008.png;imageBorder=default;" vertex="1" parent="1">
                    <mxGeometry x="990" y="460" width="124.9" height="146" as="geometry"/>
                </mxCell>
                <mxCell id="63" value="一般为不经过表查找" style="rounded=0;whiteSpace=wrap;html=1;fillColor=#ffe6cc;strokeColor=#d79b00;comic=1;sketch=1;" vertex="1" parent="1">
                    <mxGeometry x="500" y="470" width="140" height="30" as="geometry"/>
                </mxCell>
                <mxCell id="65" value="" style="shape=image;imageAspect=0;aspect=fixed;verticalLabelPosition=bottom;verticalAlign=top;comic=1;sketch=1;image=https://codereaper-image-bed.oss-cn-shenzhen.aliyuncs.com/img/image-20220818235110265.png;imageBorder=default;" vertex="1" parent="1">
                    <mxGeometry x="1220" y="398.23" width="530" height="40.77" as="geometry"/>
                </mxCell>
                <mxCell id="70" style="edgeStyle=none;rounded=0;sketch=1;html=1;exitX=1;exitY=0.5;exitDx=0;exitDy=0;entryX=0;entryY=0.5;entryDx=0;entryDy=0;startArrow=none;startFill=0;" edge="1" parent="1" source="67" target="69">
                    <mxGeometry relative="1" as="geometry"/>
                </mxCell>
                <mxCell id="67" value="possible_keys" style="rounded=0;whiteSpace=wrap;html=1;fillColor=#b0e3e6;strokeColor=#0e8088;comic=1;" vertex="1" parent="1">
                    <mxGeometry x="170" y="520" width="90" height="30" as="geometry"/>
                </mxCell>
                <mxCell id="69" value="可能使用到的索引" style="rounded=0;whiteSpace=wrap;html=1;fillColor=#e1d5e7;strokeColor=#9673a6;comic=1;" vertex="1" parent="1">
                    <mxGeometry x="294" y="520" width="136" height="30" as="geometry"/>
                </mxCell>
                <mxCell id="73" style="edgeStyle=none;rounded=0;sketch=1;html=1;exitX=1;exitY=0.5;exitDx=0;exitDy=0;entryX=0;entryY=0.5;entryDx=0;entryDy=0;startArrow=none;startFill=0;" edge="1" parent="1" source="71" target="72">
                    <mxGeometry relative="1" as="geometry"/>
                </mxCell>
                <mxCell id="71" value="key" style="rounded=0;whiteSpace=wrap;html=1;fillColor=#b0e3e6;strokeColor=#0e8088;comic=1;" vertex="1" parent="1">
                    <mxGeometry x="170" y="580" width="70" height="30" as="geometry"/>
                </mxCell>
                <mxCell id="72" value="实际采用的索引" style="rounded=0;whiteSpace=wrap;html=1;fillColor=#e1d5e7;strokeColor=#9673a6;comic=1;" vertex="1" parent="1">
                    <mxGeometry x="270" y="580" width="136" height="30" as="geometry"/>
                </mxCell>
                <mxCell id="75" value="常用来分析联合索引的使用情况" style="rounded=0;whiteSpace=wrap;html=1;fillColor=#ffe6cc;strokeColor=#d79b00;comic=1;sketch=1;" vertex="1" parent="1">
                    <mxGeometry x="440" y="630" width="180" height="30" as="geometry"/>
                </mxCell>
                <mxCell id="78" style="edgeStyle=none;rounded=0;sketch=1;html=1;exitX=1;exitY=0.5;exitDx=0;exitDy=0;entryX=0;entryY=0.5;entryDx=0;entryDy=0;startArrow=none;startFill=0;" edge="1" parent="1" source="76" target="77">
                    <mxGeometry relative="1" as="geometry"/>
                </mxCell>
                <mxCell id="76" value="key_len" style="rounded=0;whiteSpace=wrap;html=1;fillColor=#dae8fc;strokeColor=#6c8ebf;comic=1;" vertex="1" parent="1">
                    <mxGeometry x="170" y="630" width="70" height="30" as="geometry"/>
                </mxCell>
                <mxCell id="79" style="edgeStyle=none;rounded=0;sketch=1;html=1;exitX=1;exitY=0.5;exitDx=0;exitDy=0;entryX=0;entryY=0.5;entryDx=0;entryDy=0;startArrow=none;startFill=0;" edge="1" parent="1" source="77" target="75">
                    <mxGeometry relative="1" as="geometry"/>
                </mxCell>
                <mxCell id="77" value="使用的索引字节数" style="rounded=0;whiteSpace=wrap;html=1;fillColor=#e1d5e7;strokeColor=#9673a6;comic=1;" vertex="1" parent="1">
                    <mxGeometry x="270" y="630" width="136" height="30" as="geometry"/>
                </mxCell>
                <mxCell id="83" style="edgeStyle=none;rounded=0;sketch=1;html=1;exitX=1;exitY=0.5;exitDx=0;exitDy=0;entryX=0;entryY=0.5;entryDx=0;entryDy=0;startArrow=none;startFill=0;" edge="1" parent="1" source="81" target="82">
                    <mxGeometry relative="1" as="geometry"/>
                </mxCell>
                <mxCell id="81" value="ref" style="rounded=0;whiteSpace=wrap;html=1;fillColor=#dae8fc;strokeColor=#6c8ebf;comic=1;" vertex="1" parent="1">
                    <mxGeometry x="170" y="680" width="70" height="30" as="geometry"/>
                </mxCell>
                <mxCell id="82" value="联表查询信息" style="rounded=0;whiteSpace=wrap;html=1;fillColor=#e1d5e7;strokeColor=#9673a6;comic=1;" vertex="1" parent="1">
                    <mxGeometry x="270" y="680" width="136" height="30" as="geometry"/>
                </mxCell>
                <mxCell id="86" style="edgeStyle=none;rounded=0;sketch=1;html=1;exitX=1;exitY=0.5;exitDx=0;exitDy=0;entryX=0;entryY=0.5;entryDx=0;entryDy=0;startArrow=none;startFill=0;" edge="1" parent="1" source="84" target="85">
                    <mxGeometry relative="1" as="geometry"/>
                </mxCell>
                <mxCell id="84" value="rows" style="rounded=0;whiteSpace=wrap;html=1;fillColor=#dae8fc;strokeColor=#6c8ebf;comic=1;" vertex="1" parent="1">
                    <mxGeometry x="170" y="730" width="70" height="30" as="geometry"/>
                </mxCell>
                <mxCell id="88" style="edgeStyle=none;rounded=0;sketch=1;html=1;exitX=1;exitY=0.5;exitDx=0;exitDy=0;entryX=0;entryY=0.5;entryDx=0;entryDy=0;startArrow=none;startFill=0;" edge="1" parent="1" source="85" target="87">
                    <mxGeometry relative="1" as="geometry"/>
                </mxCell>
                <mxCell id="85" value="估计为了找到所需的行而要读取的行数" style="rounded=0;whiteSpace=wrap;html=1;fillColor=#e1d5e7;strokeColor=#9673a6;comic=1;" vertex="1" parent="1">
                    <mxGeometry x="270" y="730" width="220" height="30" as="geometry"/>
                </mxCell>
                <mxCell id="87" value="为估计值而不是准确值" style="rounded=0;whiteSpace=wrap;html=1;fillColor=#ffe6cc;strokeColor=#d79b00;comic=1;sketch=1;" vertex="1" parent="1">
                    <mxGeometry x="520" y="730" width="150" height="30" as="geometry"/>
                </mxCell>
                <mxCell id="93" style="edgeStyle=none;rounded=0;sketch=1;html=1;exitX=1;exitY=0.5;exitDx=0;exitDy=0;entryX=0;entryY=0.5;entryDx=0;entryDy=0;startArrow=none;startFill=0;" edge="1" parent="1" source="91" target="92">
                    <mxGeometry relative="1" as="geometry"/>
                </mxCell>
                <mxCell id="91" value="filtered" style="rounded=0;whiteSpace=wrap;html=1;fillColor=#dae8fc;strokeColor=#6c8ebf;comic=1;" vertex="1" parent="1">
                    <mxGeometry x="170" y="780" width="70" height="30" as="geometry"/>
                </mxCell>
                <mxCell id="92" value="结果集行数/rows" style="rounded=0;whiteSpace=wrap;html=1;fillColor=#e1d5e7;strokeColor=#9673a6;comic=1;" vertex="1" parent="1">
                    <mxGeometry x="270" y="780" width="130" height="30" as="geometry"/>
                </mxCell>
                <mxCell id="96" style="edgeStyle=none;rounded=0;sketch=1;html=1;exitX=1;exitY=0.5;exitDx=0;exitDy=0;entryX=0;entryY=0.5;entryDx=0;entryDy=0;startArrow=none;startFill=0;" edge="1" parent="1" source="94" target="95">
                    <mxGeometry relative="1" as="geometry"/>
                </mxCell>
                <mxCell id="94" value="Extra" style="rounded=0;whiteSpace=wrap;html=1;fillColor=#b0e3e6;strokeColor=#0e8088;comic=1;" vertex="1" parent="1">
                    <mxGeometry x="170" y="830" width="70" height="30" as="geometry"/>
                </mxCell>
                <mxCell id="95" value="额外信息" style="rounded=0;whiteSpace=wrap;html=1;fillColor=#e1d5e7;strokeColor=#9673a6;comic=1;" vertex="1" parent="1">
                    <mxGeometry x="270" y="830" width="130" height="30" as="geometry"/>
                </mxCell>
            </root>
        </mxGraphModel>
    </diagram>
</mxfile>